<?xml version="1.0" encoding="UTF-8"?>
<svg id="Layer_1" data-name="Layer 1" xmlns="http://www.w3.org/2000/svg" viewBox="0 0 518.3 170.22">
  <defs>
    <style>
      .cls-1, .cls-2 {
        fill: #3A8E32;
      }

      .cls-2 {
        stroke: #3A8E32;
        stroke-miterlimit: 10;
        stroke-width: .75px;
      }
    </style>
  </defs>
  <path class="cls-2" d="M74.74,15.28L4.87,123.34c-.98,1.51-.77,3.5.51,4.77l32.29,32.28c1.7,1.7,4.52,1.42,5.86-.56l19.2-28.42c1.71-2.53-.1-5.95-3.16-5.95h-.29c-3.18,0-4.96-3.65-3.01-6.16l18.55-23.84c1.53-1.97,4.51-1.96,6.04.01l18.51,24.04c1.93,2.51.14,6.15-3.02,6.15h0c-3.06,0-4.88,3.43-3.16,5.96l19.17,28.24c1.35,1.98,4.16,2.25,5.86.56l32.31-32.3c1.27-1.27,1.48-3.26.51-4.77L81.15,15.28c-1.5-2.33-4.91-2.33-6.41,0ZM81.15,29.3l18.54,28.68c1.02,1.57.74,3.65-.65,4.9l-4.77,4.31c-1.51,1.36-3.82,1.3-5.26-.13l-8.38-8.38c-1.44-1.44-3.75-1.5-5.26-.13l-9.57,8.65c-1.51,1.36-3.82,1.3-5.26-.13l-4.03-4.03c-1.27-1.27-1.48-3.26-.51-4.77l18.72-28.95c1.5-2.33,4.91-2.33,6.41,0ZM110.69,133.26h1.1c3.17,0,4.96-3.64,3.02-6.15l-33.94-44.08c-1.52-1.98-4.5-1.99-6.04-.01l-34.14,43.88c-1.95,2.51-.16,6.16,3.01,6.16h1.53c3.06,0,4.87,3.42,3.16,5.95l-6.02,8.91c-1.34,1.99-4.16,2.26-5.86.56l-21.42-21.41c-1.27-1.27-1.48-3.26-.51-4.77l32.95-50.97c1.32-2.04,4.19-2.34,5.9-.63l6.83,6.83c1.44,1.44,3.75,1.5,5.26.13l9.57-8.65c1.51-1.36,3.82-1.3,5.26.13l8.38,8.38c1.44,1.44,3.75,1.5,5.26.13l8.3-7.5c1.74-1.58,4.49-1.21,5.76.76l33.21,51.36c.98,1.51.77,3.5-.51,4.77l-21.45,21.45c-1.69,1.69-4.51,1.43-5.86-.56l-5.94-8.75c-1.72-2.53.09-5.96,3.16-5.96Z"/>
  <path class="cls-1" d="M183.56,126.11c0-3.27,2.81-5.82,6.4-5.82,0,0,3.9,1.14,7.03,2.27,5.78,2.41,12.81,4.26,20.31,4.26,12.34,0,20.93-4.83,20.93-15.34s-8.28-13.49-21.87-17.61c-17.03-5.11-32.65-10.37-32.65-29.11,0-17.32,14.22-24.57,34.37-24.57,8.75,0,16.4,1.42,25.62,4.83,2.34.85,4.22,2.98,4.22,5.4,0,3.27-2.97,5.96-6.56,5.96-1.09,0-2.03-.14-2.81-.57-5.94-2.56-13.28-4.83-20.62-4.83-10.47,0-18.59,3.83-18.59,13.06,0,10.79,12.18,15.34,22.96,18.6,14.84,4.54,31.55,8.52,31.55,27.98s-17.03,26.98-37.33,26.98c-12.96,0-21.71-3.12-29.21-6.11-2.34-.99-3.75-2.98-3.75-5.4Z"/>
  <path class="cls-1" d="M316.96,70.73c0,.57,0,1.28-.16,1.85l-22.34,67.6c-4.22,12.5-10.31,18.46-28.27,19.46-3.28.14-6.25-2.27-6.25-5.25s2.81-5.4,5.94-5.4c7.5,0,14.37-1.7,17.03-9.94l.49-1.48c.22-.67-.24-1.36-.94-1.43-3.45-.35-5.8-2.09-7.04-5.61l-21.24-57.65c-.16-.57-.31-1.28-.31-1.99,0-3.55,3.12-6.39,6.87-6.39,3.12,0,5.62,1.85,6.56,4.4l18.26,52.35c.35,1,1.78.97,2.09-.04l15.89-52.17c.78-2.56,3.44-4.54,6.72-4.54,3.75,0,6.72,2.84,6.72,6.25Z"/>
  <path class="cls-1" d="M326.95,122.42V42.47c0-3.41,3.12-6.39,7.03-6.39s7.03,2.98,7.03,6.39v78.1c0,5.82,2.34,7.38,6.41,7.38,1.25,0,2.5-.14,3.75-.43,3.12-.57,6.4,1.85,6.4,4.83,0,2.41-2.03,4.4-4.53,4.69-2.5.43-4.84.57-7.03.57-11.09,0-19.06-1.42-19.06-15.2Z"/>
  <path class="cls-1" d="M384.44,55.11v10.08h16.25c2.81,0,5.31,2.13,5.31,4.69,0,2.7-2.5,4.83-5.31,4.83h-16.25v55.81c0,3.41-3.12,6.39-7.03,6.39s-7.03-2.98-7.03-6.39v-55.81h-7.5c-2.81,0-5.31-2.13-5.31-4.83,0-2.56,2.5-4.69,5.31-4.69h7.5v-9.94c0-15.05,10.31-19.88,22.03-19.88,4.37,0,8.75.71,12.18,1.42,2.34.57,4.22,2.41,4.22,4.83,0,3.27-3.59,5.54-6.87,4.69-2.81-.71-5.94-1.28-8.75-1.28-5.62,0-8.75,2.27-8.75,10.08Z"/>
  <path class="cls-1" d="M420.78,55.96c-5.15,0-9.22-2.27-9.22-7.67s4.06-7.53,9.22-7.53,9.06,2.13,9.06,7.53-3.91,7.67-9.06,7.67ZM427.65,130.51v-59.64c0-3.41-3.12-6.39-7.03-6.39s-7.03,2.98-7.03,6.39v59.64c0,3.41,3.12,6.39,7.03,6.39s7.03-2.98,7.03-6.39Z"/>
  <path class="cls-1" d="M502.36,96.01v2.84c-.31,4.54-3.28,6.82-8.12,6.82h-42.18c1.25,13.07,7.5,22.01,23.12,22.01,5.47,0,11.25-1.14,15.78-2.56.94-.28,1.87-.71,3.12-.71,3.12,0,5.15,2.27,5.15,4.97,0,2.41-1.56,3.98-3.59,4.69-5.62,1.85-13.59,3.27-21.56,3.27-24.84,0-36.71-14.06-36.71-36.5s12.97-36.64,34.21-36.64c16.72,0,30.77,8.24,30.77,31.81ZM487.84,92.17c0-11.93-5.94-18.32-16.56-18.32-12.5,0-18.59,8.8-19.37,23h35.77c.16-.85.16-2.56.16-4.69Z"/>
</svg>