<?xml version="1.0" encoding="UTF-8"?>
<svg id="Layer_1" xmlns="http://www.w3.org/2000/svg" version="1.1" viewBox="0 0 384 384">
  <!-- Generator: Adobe Illustrator 29.4.0, SVG Export Plug-In . SVG Version: 2.1.0 Build 152)  -->
  <path d="M107.72,231.98c21.32-10.51,44.73-11.98,66.86-2.89,3.77,1.55,11.45,6.9,14.4,7.38,9.5,1.53,23.35-.61,33.57.01,20.58,1.26,37.34,10.1,43.08,30.89,1.4.39,1.52-.4,2.26-.9,16.28-10.92,31.84-26.48,48.26-37.04,5.1-3.28,8.71-5.45,15.18-4.63,10.93,1.39,18.11,14.17,13.42,24.15-21.79,26.34-42.98,55.84-65.96,81.05-22.51,24.7-45.57,28.93-77.39,20.19-26.98-7.41-52.99-20.82-81.47-19.34-3.95.21-8.01,1.66-12.21.94v15.88c0,3.29-6,4.71-8.63,4.98-12.51,1.26-40.12,1.27-52.63.02-6.1-.61-8.11-2.44-8.67-8.58-3.49-38.64,2.75-82.5,0-121.69-.05-4.5,2.4-7.17,6.83-7.69,12.62-1.48,43.42-1.22,56.33-.02,2.26.21,6.76,1.33,6.76,4.13v13.16ZM95.01,227.44h-44.47v111.17l1.36,1.36h43.11v-112.53ZM253.82,272.81c-.89-7.97-6.62-14.88-13.34-18.88-15.69-9.32-38.25-2.04-55.13-4.77-3.06-.49-8.86-5.17-12.27-6.78-21.97-10.43-44.77-8.13-65.37,4.11v72.6c11.08.02,23.74-2.27,34.72-.69,23.15,3.33,53.16,20.67,76.54,23.28,21.69,2.42,36.62-5.41,50.74-20.76,21.75-23.66,40.72-51.58,62.56-75.38,3.66-4.96-1.84-10.57-7.09-7.08l-62.02,46.87-73.26.13c-4.33-.4-6.28-5.3-4.58-9,.22-.47,3.36-3.65,3.61-3.65h64.89Z"/>
  <path d="M138.12,181.16c-2.78-.59-4.69-4.07-5.01-6.79-1.18-10.11-.89-38.19,1.18-47.87,2.65-12.39,10.95-22.69,21.51-29.29-23.34-17.75-19.32-55.49,8.85-65.58,21.6-7.73,43.02,3.7,49.78,25.26,5.84-1.39,10.77-.77,16.6-.18,3.25-12.7,15.78-25.1,28.93-26.88,41-5.56,60.36,41.83,29.28,67.37,10.43,6.62,18.5,16.31,21.32,28.57,2.26,9.79,2.57,38.27,1.37,48.58-.28,2.36-2.61,6.79-5.01,6.79h-39.48v21.33c0,4.72-6.84,5.68-10.4,5.94-18.27,1.34-52.9,1.76-70.83-.03-3.13-.31-8.62-2.19-8.62-5.9v-21.33h-39.48ZM160.67,84.64c4.41,4.19,19.71,10.23,24.2,5.33.81-.89,2.93-11.11,4.68-14.38,1.18-2.2,4.02-6.01,5.72-7.89,5.05-5.62,9.22-3.22,4.59-12.72-5.8-11.9-20.76-16.06-32.59-10.74-15.45,6.94-18.87,28.75-6.6,40.4ZM260.85,42.52c-6,1-12.94,7.15-15.69,12.44-4.76,9.15.23,7.66,5.5,13.65,5.41,6.15,7.96,13.43,9.49,21.36,17.39,6.17,34.55-9.69,31.38-27.76-2.63-15.01-16.31-22.11-30.69-19.7ZM220.06,68.87c-31.69,2.99-28.07,51.83,4.25,49.67,32.62-2.18,29.1-52.81-4.25-49.67ZM145.83,132.6c-1.31,11.08.97,24.51,0,35.85h31.76c-1.1-17.36,7.01-35.43,22.68-43.58l-.57-1.87c-4.9-2.64-8.02-7.98-10.81-12.59s-.4-5.64-8.24-6.28c-16.56-1.36-32.86,11.92-34.82,28.47ZM299.2,168.45v-36.75c0-10.12-12.89-22.94-22.19-25.91-3.77-1.21-16.55-2.96-19.12.04-.77.9-2.34,5.97-3.7,8.1-2.08,3.27-5.4,7.23-8.87,9.08l-.57,1.87c15.78,8.04,23.88,26.25,22.68,43.58h31.76ZM190.3,159.83c-1.26,10.66.94,23.56,0,34.48l1.36,1.36h61.71l1.36-1.36v-35.39c0-2.5-2.99-9.46-4.39-11.95-15.18-27.1-56.42-17.74-60.05,12.86Z"/>
</svg>