<?xml version="1.0" encoding="UTF-8"?>
<svg id="Layer_1" xmlns="http://www.w3.org/2000/svg" version="1.1" viewBox="0 0 409.6 409.6">
  <!-- Generator: Adobe Illustrator 29.4.0, SVG Export Plug-In . SVG Version: 2.1.0 Build 152)  -->
  <defs>
    <style>
      .st0 {
        fill: #fff;
      }
    </style>
  </defs>
  <path d="M0,163.85c1.98-3.99,3.28-7.55,7.81-9.35l132.31-52.16,4.83.83c23.83,11.77,53.78,18.7,77,30.77,15.38,8,6.81,28.38-9.42,23.78l-59.23-23.39v201.47l102.2,41.09v-136.84c0-5.25,8.14-10.16,13.17-10.04,4.73.11,12.38,5.17,12.38,10.04v136.84l101.82-40.68.38-145.63c2.23-15.7,24.15-15.5,25.58.77l-.03,154.03c-.69,4.72-2.85,8.98-7.28,11.08l-132.07,52.38-5.61-.78-123.06-49.32-124.77,49.73c-7.64,1.54-12.88-2.71-16.02-9.22v-235.38ZM127.75,134.33l-102.2,41.09v201.47l102.2-41.09v-201.47Z"/>
  <path d="M327.36.28c51.3,4.49,91.88,56,78.66,106.93-8.34,32.14-51.89,93.54-75.85,117.29-4.53,4.49-8.56,7.17-15.22,4.82-4.48-1.58-12.45-11.91-15.94-15.98-23.8-27.77-67.12-85.01-69.08-121.66C227.46,45.89,266.44,4.22,311.39.28c4.31-.38,11.66-.38,15.97,0ZM364.61,44.45c-47.71-47.68-130.28,3.39-103.4,67.03,13.09,31,37.2,59.62,57.85,85.86,1,.21,1.35-.63,1.92-1.17,3.73-3.53,9.6-11.96,13.09-16.44,16.46-21.09,50.79-67.82,49.22-94.5-.84-14.25-8.64-30.75-18.67-40.78Z"/>
  <polygon class="st0" points="127.75 134.33 127.75 335.8 25.55 376.89 25.55 175.42 127.75 134.33"/>
  <path class="st0" d="M364.61,44.45c10.04,10.03,17.83,26.53,18.67,40.78,1.57,26.67-32.75,73.41-49.22,94.5-3.49,4.47-9.36,12.91-13.09,16.44-.57.54-.92,1.38-1.92,1.17-20.65-26.23-44.76-54.85-57.85-85.86-26.87-63.64,55.69-114.71,103.4-67.03ZM316.01,51.59c-52.77,4.55-41.54,86.96,12.17,75.19,44.99-9.86,35.21-79.28-12.17-75.19Z"/>
  <path d="M316.01,51.59c47.38-4.09,57.17,65.33,12.17,75.19-53.72,11.77-64.95-70.64-12.17-75.19ZM316.77,77.07c-15.75,2.55-12.23,28.29,5.21,25.15,15.39-2.77,12.54-28.02-5.21-25.15Z"/>
  <path class="st0" d="M316.77,77.07c17.76-2.87,20.6,22.39,5.21,25.15-17.44,3.14-20.96-22.61-5.21-25.15Z"/>
</svg>