<?xml version="1.0" encoding="UTF-8"?>
<svg id="Layer_1" xmlns="http://www.w3.org/2000/svg" version="1.1" viewBox="0 0 409.6 409.6">
  <!-- Generator: Adobe Illustrator 29.4.0, SVG Export Plug-In . SVG Version: 2.1.0 Build 152)  -->
  <path d="M210.7.7c.5,0,1.01.02,1.51.06,60.05,5.14,108.45,52.31,111.95,113.02.93,16.14,1.4,41.65.04,57.51-1.81,20.99-20.52,24.4-38.24,22.83-1.6,5.99-2.06,12.28-3.69,18.27-3.98,14.59-12.1,27.26-21.84,38.57l13.47,26.47c20.87,8.33,43.24,12.23,62.18,24.85,27.57,18.37,46.92,51.03,51.06,83.88,1.03,8.17,4.04,21.63-7.43,22.68l-353.39-.39c-6.48-3.12-5.9-8.88-5.54-15.21,2-34.96,22.97-71.64,51.96-90.96,18.94-12.62,41.31-16.52,62.18-24.85l13.47-26.47c-6.32-7.68-12.4-15.51-16.63-24.61-9.18-.3-17.59-.58-24.39-7.54-7.18-7.35-7-16.6-6.89-26.25-9.36-3.19-15.03-11.52-15.87-21.26-1.37-15.86-.89-41.37.04-57.51C88.05,54.65,135.29,4.05,195.15.74l1.54-.07,14.02.03ZM308.2,111.78c-1.83-13.34-4.92-26.1-10.88-38.23-20.49-41.69-67.23-64.38-112.91-55.62-45.79,8.79-79.49,47.67-83.81,93.85h15.97c.5-34.55,23.65-66.1,56.68-76.26,17.08-5.25,45.2-5.26,62.3,0,33.03,10.16,56.18,41.71,56.68,76.26h15.97ZM276.26,119.77v-13.17c0-13.08-10.93-32.27-20.34-41.14-24.13-22.72-70.96-24.07-97.3-4.63-13.52,9.98-24.69,27.63-24.89,44.57,11.58-14.25,31.04-24.34,49.52-25.53,10.91-.7,10.19,2.73,17.14,8.38,22.33,18.13,46.93,28.76,75.86,31.53ZM166.08,225.96h-15.97c2.51,5.53,7.12,11.06,11.56,15.19,29.71,27.62,75.5,20.27,96.57-13.66,8.41-13.54,10.89-28.73,13.13-44.35,2.25-15.63,3.37-31.56,4.01-47.32-26.2-3.03-51-10.89-72.82-25.79-3.22-2.2-16.71-14.05-18.47-14.11-4.09-.14-12.6,2.49-16.62,4.07-8.76,3.45-16.39,9.54-22.55,16.57-1.68,1.92-10.76,13.66-11.21,15.13-.81,2.62-.44,7.86-.35,10.82.27,8.17,1.5,18.08,2.39,26.35,1.5,13.79,3.86,27.49,6.42,41.09l23.38.07c3.79-8.89,11.08-15.02,20.9-15.99,16.95-1.68,39.62-.17,41.82,21.23,2.59,25.19-22.8,28.54-41.82,26.66-9.08-.9-17.9-6.99-20.37-15.96ZM116.57,127.75h-15.97v43.52c0,2.13,4.66,6.79,6.79,6.79h13.17l-3.99-50.3ZM308.2,127.75h-15.97l-3.99,50.3h13.17c2.12,0,6.79-4.66,6.79-6.79v-43.52ZM122.85,194.13l-6.28-.11c-.61,7.7-.17,16.06,9.59,15.96l-3.3-15.85ZM187.42,210.18c-7.53,1.36-9.5,11.48-2.4,14.8,3.55,1.66,19.9,1.63,23.3-.28,5.44-3.06,5.09-11.1-.51-13.72-3.12-1.46-16.7-1.46-20.39-.79ZM248.71,263.5l-33.92,35.52,26.73,26.73c7.53-12.71,12.91-26.61,17.82-40.51l-10.63-21.74ZM158.1,265.88l-8.78,19.5c5.26,13.74,10.35,27.72,17.96,40.37l25.14-25.93-34.31-33.93ZM217.18,273.07c-9.54,1.2-19.33,1.37-28.74-.8l15.48,15.13,13.26-14.33ZM190.03,392.83c-20.29-31.28-42.13-61.5-53.89-97.42l-1.54-.78c-15.44,5.79-32.26,9.17-46.78,17.14-29.34,16.1-47.55,48.22-51.08,81.06h153.3ZM372.07,392.83c-3.53-32.83-21.74-64.96-51.08-81.06-14.53-7.97-31.34-11.35-46.78-17.14l-1.54.78c-11.74,35.88-33.65,66.15-53.89,97.42h153.3ZM203.31,311.45l-27.67,29.87,29.14,43.53,28.36-43.53-29.84-29.87Z"/>
  <path d="M319.19,331.51c1.04-.15,1.72-.21,2.78,0,6.73,1.27,26.37,25.14,26.57,32.17.14,4.68-3.92,8.86-8.73,8.38-5.85-.58-10.21-11.67-14.07-16.33-3.33-4.01-13.29-11.32-13.5-16.06-.16-3.79,3.26-7.63,6.95-8.16Z"/>
  <path d="M290.41,316.34c7.69-1.7,13.97,8.76,6.21,14.22-10.47,7.36-17.98-11.61-6.21-14.22Z"/>
</svg>