<?xml version="1.0" encoding="UTF-8"?>
<svg id="Layer_1" xmlns="http://www.w3.org/2000/svg" version="1.1" viewBox="0 0 384 384">
  <!-- Generator: Adobe Illustrator 29.4.0, SVG Export Plug-In . SVG Version: 2.1.0 Build 152)  -->
  <path d="M138.91,60.1h15.93c-1.4-15.72,6.21-32.37,23.42-33.67,9.96-.75,31.43-1.47,39.36,4.08,9.86,6.89,12,18.2,11.56,29.59h15.93v-19.03c0-5.19,7.66-13.74,12.89-14.55,4.12-.64,21.51-.66,25.41.14,6.72,1.39,11.45,8.79,12.15,15.28.78,7.21-1.55,21.44.18,27.26.42,1.4,7.93,8.65,9.71,12.41,5.22,10.99,4.57,46.32,1.35,58.31-.68,2.53-3.99,9.47-3.95,10.72.14,4.55,5.36,15.31,5.96,22.29,1.81,21.09-1.32,44.58,0,65.92,15.14-.51,28.22,7.65,31.62,22.81,2.05,9.17,2.05,31.94,0,41.1-4.08,18.2-19.84,23.62-36.94,23.24-8.71,17.4-25.97,29.71-45.52,31.47-43.08-2.36-89.24,3-131.95,0-19.19-1.35-37.09-14.5-45.52-31.47-37.6,1.4-40.22-25.37-38.1-55.78,1.38-19.85,12.4-31.53,32.79-31.38,1.32-21.34-1.8-44.83,0-65.92.6-6.98,5.81-17.75,5.96-22.29.04-1.25-3.27-8.19-3.95-10.72-3.21-12-3.87-47.33,1.35-58.31,1.79-3.76,9.3-11.01,9.71-12.41,1.73-5.82-.6-20.05.18-27.26.7-6.49,5.44-13.9,12.15-15.28,4.09-.84,20.14-.76,24.6-.22,5.74.69,13.7,8.93,13.7,14.62v19.03ZM126.52,60.1v-17.26c0-.69-1.52-3.27-2.21-3.98h-21.24c-.2,0-2.21,2.76-2.21,3.1v19.91c1.84.2,5.34-1.77,6.64-1.77h19.03ZM215.91,60.1v-12.83c0-2.13-6.14-7.67-8.59-8.22-3.41-.76-27.2-.76-30.6,0-7.7,1.72-10.43,12.74-9.33,19.59l1.18,1.46h47.35ZM283.17,61.87v-19.91c0-.33-2.01-3.1-2.21-3.1h-21.24c-.2,0-2.21,2.76-2.21,3.1v18.14h19.03c.88,0,5.82,2.64,6.64,1.77ZM218.56,176.92h25.22c22.3,0,44.9-18.35,50.84-39.43,2.6-9.23,2.93-33.5,1.82-43.32-1.24-10.91-11.85-20.52-22.56-21.69-56.42.89-113.29-1.78-169.46,1.36-7.34,2.5-14.41,9.8-16.24,17.39-2.1,8.73-1.12,38.92,1.6,47.63,6.38,20.38,28.69,38.05,50.45,38.05h25.22c-.89-12.76,3.67-22.05,17.22-23.05,18.88-1.4,37.9-1.49,35.88,23.05ZM165.47,189.31c-28.88,1.73-56.35-1.82-76.1-24.77-.34,3.42-1.56,6.69-1.81,10.15-3.15,42.85,2.41,89.52.04,132.77,2.57,18.91,19.24,35.99,38.46,37.65,42.32,3.67,89.9-2.8,132.77-.04,19.39-2.91,34.71-18.27,37.61-37.61-2.19-43.11,2.94-89.12.04-131.89-.25-3.67-1.44-7.37-1.81-11.03-19.69,23.01-47.24,26.47-76.1,24.77.99,9.06-3.03,20.21-13.04,21.92-5.76.98-25.99.86-30.91-1.41-7.77-3.58-9.71-12.61-9.14-20.51ZM205.08,167.4c-1.95-1.95-22.31-1.55-26.13,0-1.71,1.71-1.75,28.8,0,30.56,3.82,1.55,24.18,1.95,26.13,0,1.52-4.14,2-28.56,0-30.56ZM75.19,310.11v-57.52c0-4.22-15.32,1.02-18.36,8.19s-3.05,35.07-.27,42.3c3,7.8,11.81,10.53,19.51,10.13.51-1.29-.82-2.48-.88-3.09ZM308.83,252.59v57.52c0,.45-1.4,1.86-.88,3.09,7.36.39,16.13-2.17,19.24-9.51,2.95-6.96,3.02-34.47.5-41.65-1.34-3.81-4.37-7.14-8.03-8.79-2.09-.94-9.97-3.45-10.83-.67Z"/>
  <path d="M138.27,231.27c3.34-3.52,8.76-5.88,13.58-6.29,25.62-2.21,54.35,1.73,80.3,0,8.71.31,17.84,8.28,19.03,16.97,1.08,7.91.95,30.81.07,38.94-.93,8.62-9.02,16.7-17.62,17.62-26.58-1.82-56.34,2.41-82.54.03-9.05-.82-17.37-8.56-18.35-17.65-.88-8.13-1.01-31.03.07-38.94.42-3.08,3.32-8.43,5.45-10.67ZM151.3,235.67c-4.29,1.15-7.51,3.84-8.07,8.43-.8,6.63-.92,29.59.07,35.97.72,4.67,4.8,7.53,9.29,7.96,25.09,2.42,54.05-1.9,79.55-.02,5.13-.79,8.15-4.25,8.65-9.35.67-6.91.98-28.88-.08-35.25-.81-4.85-5.55-7.52-10.06-7.94-25.04-2.35-53.92,1.67-79.35.2Z"/>
</svg>