<?xml version="1.0" encoding="UTF-8"?>
<svg id="Layer_1" data-name="Layer 1" xmlns="http://www.w3.org/2000/svg" viewBox="0 0 384 384">
  <path d="M219.33,140.25c1.36.07,2.37-.8,3.48-1.38,8.03-4.19,23.07-15.3,30.41-17.54,6.11-1.87,11.27,3.02,9.93,9.18l-19.13,34.48,74.11,19.88c5.25,2.24,6.15,8.81,2.18,12.69l-75.94,21.42c-.94.83.1,1.33.35,1.93,4.4,10.28,13.55,21.39,18.41,31.8,1.83,5.39-2.46,10.76-8.08,10.41l-35.74-19.37-19.44,72.4c-1.76,7.51-11.04,8.83-14.3,1.52l-20.17-74.67-32.93,19.12c-5.28,2.67-10.59-1.03-11.12-6.74,5.36-12.69,13.38-24.31,20.11-36.37l-74.53-20.21c-7.01-3.5-6.11-12.48,1.52-14.33l72.26-19.48c.18-.85-.09-1.45-.4-2.21-3.72-9.27-16.67-24.48-18.74-33.03-1.34-5.53,4.79-10.69,10.2-8.66,10.44,4.93,21.4,13.97,31.74,18.45.6.26,1.09,1.31,1.92.36l21.35-76.11c3.32-4.19,10.92-2.75,12.69,2.21l19.84,74.25ZM303.15,191.26l-83.83-22.13c-2.75-1.09-4.23-3.56-4.87-6.37l-21.7-81.76-23.43,84.53-4.46,3.78-82.52,21.95c.11,1.14,1.11,1.16,1.91,1.45,24.78,9.15,54.95,12.94,80.28,21.56,2.5.87,4.77,3.17,5.61,5.62,8.61,25.39,12.38,55.61,21.52,80.44.29.8.32,1.8,1.45,1.91l21.91-82.68,2.76-3.99c25.64-8.06,52.15-14.07,78.06-21.54,1.87-.54,4.04-1.05,5.82-1.68.72-.26,1.72-.08,1.5-1.1ZM137.73,137.26l13.82,24.07c7.74.46,10.86-2.83,10.56-10.58l-24.37-13.49ZM233.51,161.99l13.5-24.74-24.69,13.53,2.4,8.81,8.79,2.4ZM162.34,233.16c-.15-8.03-3.14-10.91-11.05-11.07l-12.81,23.91,23.86-12.84ZM247.01,246.75l-13.47-24.42-8.23,1.55-2.33,9.03,24.03,13.84Z"/>
  <path d="M149.46,28.74c4.8-.1,7.44,5.83,3.95,9.09-8.83,3.56-17.97,6.09-26.66,10.03-43.65,19.8-75.12,58.62-87.91,104.67-2.36,3.43-8.19,2.08-9.34-1.76-.9-3.03,4.39-16.66,5.87-20.46,16.31-41.95,49.85-76.28,91.16-93.91,4.67-1.99,18.57-7.56,22.93-7.66Z"/>
  <path d="M234.07,28.64c3.24-.47,20.13,6.06,24.15,7.76,39.92,16.91,72.47,49.7,89.45,89.62,1.98,4.67,7.55,18.62,7.64,22.98.11,5.13-6.26,7.51-9.4,3.53-12.84-46.34-45.19-86.03-89.41-105.42-4.62-2.03-23.2-7.52-25.18-9.27-3.1-2.73-1.08-8.65,2.75-9.21Z"/>
  <path d="M33.49,229.63c2.06-.42,4.12.04,5.35,1.83,15.12,55.92,58.4,99.08,114.14,114.39,4,3.12,1.6,9.51-3.51,9.41-4.43-.09-18.72-5.84-23.46-7.88-42.49-18.31-78.06-55.56-92.87-99.69-1.49-4.43-7-16.56.36-18.05Z"/>
  <path d="M348.62,229.63c10.57-2.17,4.96,12.13,3.39,16.95-15.85,48.69-58.99,91.43-108,106.29-2.1.64-6.94,2.35-8.73,2.39-4.8.1-7.48-6-3.97-9.11,1.98-1.74,20.57-7.25,25.18-9.27,35.32-15.48,65.31-45.79,80.69-81.15,2.87-6.6,5.46-18.64,8.47-23.77.73-1.24,1.52-2.03,2.97-2.32Z"/>
  <path d="M369.4,203.25c4.74,1.01,5.29,9.5-1.55,10.45-3.92.55-21.74.67-25.24-.11-3.17-.71-4.05-3.28-4.31-6.18-.67-7.42-.82-24.3.02-31.55.4-3.47,2.17-5.23,5.61-5.63,4.81-.56,19.97-.62,24.54.19,6.88,1.22,4.56,10.32.92,10.32h-20.58v6h20.58c4.35,0,4.35,10.5,0,10.5h-20.58v6c5.91.86,15.12-1.16,20.58,0Z"/>
  <path d="M185.64,344.25v6h19.84c1.01,0,3.84,2.77,4.1,4.14.46,2.45.29,18.55-.48,20.43-.53,1.3-2.96,2.29-4.34,2.46-3.25.41-23.71.5-26.07-.19-2.72-.79-4.37-4.64-3.13-7.33.18-.39,2.77-3.01,2.98-3.01h20.58v-6h-20.58c-1.87,0-3.18-3.16-3.38-4.86-.38-3.23-.52-15.05.03-17.99.6-3.22,4.39-3.93,7.06-4.17,4.33-.4,19.87-.57,23.49.53,6.71,2.03,3.01,10,1.24,10h-21.33Z"/>
  <path d="M185.64,46.12c-.97,4.61-8.42,5.18-10.32.59.99-6.9-2.14-33.36.55-37.94,1.34-2.29,6.06-2.74,7.91-.54l15.33,20.26V10.88c0-3.68,8.63-6.42,10.33-.6-.45,10.81,1.13,22.99.19,33.63-.47,5.35-3.94,7.68-8.67,4.86l-15.32-20.27c-.73,5.1.99,12.91,0,17.62Z"/>
  <path d="M22.46,191.25c5.68-5.92,8.52-5.88,13.47.75v-17.62c0-3.86,9.27-6.72,10.44.79.83,5.33.83,28.33,0,33.66-.37,2.35-2.4,4.75-4.88,4.91-5.17.33-8.87-9.93-12.67-12.74-2.76,3.11-7.48,13-11.91,12.74-.84-.05-3.8-1.3-4.23-1.99-2.44-3.86.17-32.17-.37-38.57,1.95-4.67,10.15-2.73,10.15,1.94v16.12Z"/>
</svg>